<svg xmlns="http://www.w3.org/2000/svg" viewBox="0 0 4680 3120"><defs><style>.cls-1{fill:#fff;}.cls-2{fill:#f5f2ff;}.cls-3{fill:#d1d7ff;}.cls-4{fill:#486a00;}.cls-5{fill:#5a8600;}.cls-6{fill:#9db500;}.cls-7{fill:#ff9a24;}.cls-8{fill:#e87700;}.cls-9{fill:#727cb1;}.cls-10{fill:#8e9acc;}.cls-11{fill:#092e5e;}.cls-12{fill:#93a9e3;}.cls-13{fill:#bfd400;}.cls-14{fill:#d00;}.cls-15{fill:#ffcfb8;}.cls-16{fill:#ffa9a4;}.cls-17{fill:#b00000;}.cls-18,.cls-19,.cls-20,.cls-23,.cls-24,.cls-26,.cls-27{fill:none;stroke-miterlimit:10;}.cls-18,.cls-20{stroke:#092e5e;}.cls-18,.cls-19,.cls-20,.cls-24{stroke-linecap:round;}.cls-18,.cls-24{stroke-width:2.82px;}.cls-19,.cls-24{stroke:#ff6d88;}.cls-19,.cls-23,.cls-26,.cls-27{stroke-width:5.64px;}.cls-20{stroke-width:11.27px;}.cls-21{fill:#314f82;}.cls-22{fill:#ff6d88;}.cls-23{stroke:#314f82;}.cls-25{fill:#aeccff;}.cls-26{stroke:#93a9e3;}.cls-27{stroke:#fff;}</style></defs><title>06</title><g id="_06" data-name="06"><rect class="cls-1" width="4680" height="3120"/><rect class="cls-2" x="980.95" y="1067.16" width="2933.55" height="1182.48" rx="591.24"/><rect class="cls-2" x="726.01" y="882.66" width="3476.99" height="578.66" rx="289.33"/><rect class="cls-2" x="2012.48" y="478.44" width="1504.52" height="578.66" rx="289.33"/><rect class="cls-2" x="709.24" y="1887.35" width="3476.99" height="578.66" rx="289.33"/><rect class="cls-3" x="619.85" y="2575.95" width="3505.51" height="90.7" rx="45.35"/><rect class="cls-4" x="749.87" y="453.35" width="617.24" height="1075.43" rx="308.62"/><rect class="cls-5" x="657.89" y="583.06" width="394.68" height="586.21" rx="197.34"/><rect class="cls-5" x="530.19" y="865.54" width="271.12" height="402.7" rx="135.56"/><rect class="cls-5" x="704.32" y="981.63" width="271.12" height="402.7" rx="135.56"/><rect class="cls-5" x="1141.59" y="853.93" width="271.12" height="402.7" rx="135.56"/><rect class="cls-5" x="1261.54" y="710.19" width="193.73" height="287.75" rx="96.87"/><rect class="cls-6" x="1323.59" y="710.19" width="131.68" height="195.59" rx="65.84"/><rect class="cls-5" x="1327.33" y="1004.28" width="193.73" height="287.75" rx="96.87"/><path class="cls-7" d="M945.37,1154.41l53.13,960.15h62.19L1092.25,1154a48.17,48.17,0,0,0-47.48-49.74l-50.64-.69A48.17,48.17,0,0,0,945.37,1154.41Z"/><path class="cls-7" d="M961.18,818.87s-103.65,149.26-58,296.45c20.74,53.9,103.66,22.8,103.66,22.8l-20.73,99.51s-99.51,47.68-122.31-41.46S851.31,905.94,944.6,808.5l20.73,12.44"/><path class="cls-7" d="M1055.85,1275c6.91,1.38,74.63,47,88.46-47s26.25-250.16,168.61-244.63l5.53,23.5s-100.89-29-118.86,98.12-1.38,340-135.44,327.56S1055.85,1275,1055.85,1275Z"/><path class="cls-7" d="M872,991.63S736.6,990.24,762.85,841c23.5-2.76,23.5,1.38,23.5,1.38s-23.5,135.44,106.42,116.1C890,984.71,872,991.63,872,991.63Z"/><path class="cls-7" d="M1183,1135.36c4.15,0,56.67,53.9,142.36-31.79l33.17,19.35s-92.6,103.66-188,34.55C1170.56,1146.42,1183,1135.36,1183,1135.36Z"/><rect class="cls-6" x="530.19" y="940.26" width="220.82" height="327.98" rx="110.41"/><path class="cls-8" d="M1000.34,2132.76h37V1340.52A86.47,86.47,0,0,0,950.89,1254h0Z"/><path class="cls-3" d="M2564.44,705.06h52.94a96.68,96.68,0,0,1,96.68,96.68v96.68a0,0,0,0,1,0,0H2564.44a96.68,96.68,0,0,1-96.68-96.68v0A96.68,96.68,0,0,1,2564.44,705.06Z" transform="translate(5181.83 1603.48) rotate(180)"/><path class="cls-3" d="M2272.09,705.06h209.48a36.83,36.83,0,0,1,36.83,36.83v0a36.83,36.83,0,0,1-36.83,36.83H2272.09a0,0,0,0,1,0,0V705.06a0,0,0,0,1,0,0Z" transform="translate(4790.5 1483.78) rotate(180)"/><rect class="cls-3" x="1757.88" y="686.01" width="437.77" height="246.56" rx="123.28"/><rect class="cls-3" x="1630.75" y="816.84" width="268.02" height="150.95" rx="75.48"/><rect class="cls-3" x="3312.64" y="686.01" width="437.77" height="246.56" rx="123.28"/><rect class="cls-3" x="3185.51" y="816.84" width="268.02" height="150.95" rx="75.48"/><rect class="cls-9" x="3823.48" y="796.43" width="164.37" height="20.13" rx="10.06" transform="translate(3099.17 4712.16) rotate(-90)"/><circle class="cls-10" cx="3903.15" cy="907.13" r="64.58"/><rect class="cls-9" x="3882.18" y="1184.72" width="46.96" height="1101.97"/><rect class="cls-9" x="3851.99" y="2278.3" width="107.35" height="48.64" rx="24.32"/><polygon class="cls-11" points="3984.5 2544.99 3813.41 2544.99 3865.41 2323.27 3945.92 2323.27 3984.5 2544.99"/><polygon class="cls-12" points="3782.39 952.1 4022.24 952.1 3935.02 1173.82 3871.28 1173.82 3782.39 952.1"/><rect class="cls-9" x="3823.48" y="1151.17" width="164.37" height="48.64" rx="24.32"/><rect class="cls-2" x="3891.78" y="1091.59" width="95.97" height="14.53" rx="7.27" transform="translate(1435.15 4332.45) rotate(-67.82)"/><rect class="cls-9" x="3753.03" y="918.03" width="305.26" height="38.58" rx="19.29"/><rect class="cls-9" x="3793.29" y="2526.54" width="224.75" height="48.64" rx="24.32"/><rect class="cls-9" x="727.76" y="2347.91" width="694.39" height="231.46"/><rect class="cls-11" x="727.76" y="2359.66" width="694.39" height="53.67"/><rect class="cls-9" x="667.38" y="2323.99" width="838.64" height="54.11" rx="27.05"/><rect class="cls-11" x="728.5" y="2209.36" width="708.97" height="117.12" rx="58.56"/><rect class="cls-5" x="645.74" y="2096.92" width="320.91" height="163.97" rx="81.98"/><rect class="cls-6" x="649.02" y="2081.3" width="226.16" height="115.56" rx="57.78"/><rect class="cls-5" x="849.53" y="1984.49" width="520.01" height="227.21" rx="113.61"/><rect class="cls-6" x="849.53" y="1984.49" width="520.01" height="213.3" rx="96.76"/><rect class="cls-6" x="773.05" y="1958.41" width="234.2" height="102.33" rx="51.17"/><rect class="cls-6" x="793.17" y="1928.47" width="118.47" height="51.77" rx="25.88"/><rect class="cls-13" x="849.53" y="1984.49" width="268.2" height="117.19" rx="58.59"/><rect class="cls-5" x="1132.96" y="2181.25" width="445.06" height="86.67" rx="43.33"/><rect class="cls-6" x="1132.96" y="2170.32" width="445.06" height="61.68" rx="30.84"/><rect class="cls-6" x="487.7" y="2192.72" width="305.47" height="154.11" rx="77.06"/><rect class="cls-6" x="591.78" y="2081.56" width="130.95" height="66.06" rx="33.03"/><rect class="cls-6" x="614.42" y="2028.73" width="130.95" height="66.06" rx="33.03"/><rect class="cls-13" x="614.42" y="2028.73" width="65.54" height="33.06" rx="16.53"/><rect class="cls-6" x="1228.3" y="1960.8" width="130.95" height="66.06" rx="33.03"/><rect class="cls-6" x="1437.12" y="2092.99" width="85.66" height="43.22" rx="21.61"/><rect class="cls-13" x="477" y="2189.65" width="229.33" height="115.7" rx="57.85"/><rect class="cls-6" x="1404.68" y="2122.79" width="149.91" height="75.63" rx="37.82"/><rect class="cls-6" x="1330.72" y="2221.55" width="207.25" height="104.56" rx="52.28"/><rect class="cls-13" x="1330.72" y="2221.55" width="148.46" height="76.04" rx="37.73"/><rect class="cls-6" x="1393.62" y="2309.6" width="207.25" height="104.56" rx="52.28"/><rect class="cls-5" x="1298.02" y="2392.63" width="207.25" height="104.56" rx="52.28"/><rect class="cls-6" x="1342.9" y="2392.63" width="162.37" height="81.92" rx="40.96"/><rect class="cls-11" x="848.52" y="2391.52" width="15.1" height="153.47" rx="7.55"/><rect class="cls-11" x="1034.7" y="2391.52" width="15.1" height="153.47" rx="7.55"/><rect class="cls-11" x="1210.81" y="2391.52" width="15.1" height="153.47" rx="7.55"/><rect class="cls-11" x="1140.37" y="2391.52" width="15.1" height="153.47" rx="7.55" transform="translate(-1320.34 3616.17) rotate(-90)"/><rect class="cls-11" x="918.97" y="2391.52" width="15.1" height="153.47" rx="7.55" transform="translate(-1541.74 3394.77) rotate(-90)"/><path class="cls-14" d="M3400.57,2279.92s26.45,51.47-14.83,112.82,28.74,88.93,44.82,54.27l84.93-166s12.19-39.94-41-45.69l-53.14-5.74S3445.47,2253.4,3400.57,2279.92Z"/><path class="cls-14" d="M3092.89,2260.84s-3.58,57.76-70.42,89.38-20.76,91.12,10.77,69.55l157.88-99.28s30.9-28.1-11.84-60.2l-42.74-32.11S3145,2261,3092.89,2260.84Z"/><path class="cls-12" d="M3009.09,1762.69,2937.7,1866s114.59,5.63,133.38,101.44,22.54,227.3,82.65,261.11c39.45,45.08-45.08,103.32-103.32,73.26s-75.14-178.46-257.35-317.47c-63.87-65.75-50.72-182.21-3.76-291.17s77-174.7,77-174.7S3018.48,1648.1,3009.09,1762.69Z"/><path class="cls-9" d="M3050.41,2301.82c58.24,30.06,142.77-28.18,103.32-73.26-49.71-28-60.88-122.74-73.89-208.88-32.05-62.22-61.26-117.48-68.88-127.37a46.53,46.53,0,0,0-14.28-11.79,191.83,191.83,0,0,0-59-14.51l21.43-31c-2.36-10-9.71-41-32.7-138-43.2,22.54,9.39,92-35.69,195.37-43,79-93.9,67.45-128.26,44a143.21,143.21,0,0,0,30.58,48C2975.27,2123.36,2992.18,2271.76,3050.41,2301.82Z"/><path class="cls-15" d="M3123.25,1715.36c-1.62,11.72-7.58,223.2-7.58,223.2s-78,85.28-107.85,38.84c-30.74-123.75-32.52-166.88-32.52-166.88Z"/><path class="cls-15" d="M3087.69,1923.82s6.12,7.94,56.25,19.11,136.34,43.52,200.49,163c64.43,118.28,83.65,126.5,97,137.37,11.69,18.39.95,72.57-38.46,54.58-42.61-33.17-347.12-219.38-390.54-308S3087.69,1923.82,3087.69,1923.82Z"/><path class="cls-12" d="M3071.08,1465.88c5.63-1.88,48.84,22.55,50.72,118.35s11.27,341.89,11.27,341.89,135.25,18.78,217.9,157.79c82.66,140.89,114.59,146.53,114.59,146.53s1.88,107.07-78.89,93.92c-58.24-45.08-388.86-291.17-400.13-328.74-7-23.21-19.67-111-28.36-174.67-5.37-39.37-9.21-69.53-9.21-69.53s-5.63-75.14-54.47-82.66-52.6-122.1-20.67-144.64S3071.08,1465.88,3071.08,1465.88Z"/><path class="cls-16" d="M2919,1143.72s3.36,66.13-78.9,140.84L2653.8,1449.19,2603.94,1384l154.35-211S2894.29,1073,2919,1143.72Z"/><path class="cls-11" d="M2929,1126.75s-115-50.59-193.67,66.26l-59.39,80.6L2787,1331.45S2933.51,1243.61,2929,1126.75Z"/><path class="cls-15" d="M2242.58,1497.93l-12.15,10.57a59.47,59.47,0,0,1-44.07,14.37l-34.9-3-3.92-26.68,59.17-50.4Z"/><path class="cls-15" d="M2212,1420.94h0a30,30,0,0,1,29.72,16.65l9.91,20.27a50.36,50.36,0,0,1,3,36.63l-2.13,7.08Z"/><polygon class="cls-16" points="2252.49 1501.57 2207.62 1500.83 2177.12 1440.89 2212.57 1421.3 2252.49 1501.57"/><path class="cls-15" d="M2142.89,1496.83l32.33-55.48,10.93-6.07a34.27,34.27,0,0,1,43.83,9.11h0a34.32,34.32,0,0,1,5.16,32.19l-2.92,8.32a10.19,10.19,0,0,1-11.4,6.67h0a10.19,10.19,0,0,1-7.82-13.49l2.82-7.85-12.2-13.13-4.17,30.63-35.81,20.17Z"/><path class="cls-16" d="M2201.16,1484.93a26.68,26.68,0,0,1-4,10.15,22.48,22.48,0,0,1-8.22,7.79c-.45.21-.89.44-1.34.63l-1.4.52a17.31,17.31,0,0,1-2.93.6,16,16,0,0,1-5.87-.45,19.27,19.27,0,0,1-9.23-6A37,37,0,0,0,2178,1501a16,16,0,0,0,9-1.77,29.24,29.24,0,0,0,7.56-6.1A89.67,89.67,0,0,0,2201.16,1484.93Z"/><path class="cls-16" d="M2223.33,1437.8a47.31,47.31,0,0,1,4.94,7.07,80.15,80.15,0,0,1,3.87,7.55,77.89,77.89,0,0,1,3.06,7.91,47.17,47.17,0,0,1,2,8.4,45.74,45.74,0,0,1-4.95-7.07,77.84,77.84,0,0,1-3.87-7.55,78.93,78.93,0,0,1-3.05-7.92A46.41,46.41,0,0,1,2223.33,1437.8Z"/><path class="cls-12" d="M1702.05,1003.74c-160.61,32.41-11.27,153.57-77.49,146.53-35.72-3.8-29.61,39.53-1.38,61,.31,9.27-3.72,17.84-20.16,17-34.75-1.88-48.84,18.79-49.78,61-22.54,36.63-90.17-4.69-77,78,14.09,85.47,55.42,43.21,68.57,60.11s5.63,50.72,33.81,55.42,319.35-157.8,139-269.57c-4.94-3.06-9.61-5.94-14.1-8.69,9.11-7.16,18.52-16.61,28.13-28.9,95.8-122.57,77.48-52.13,77.48-52.13S1862.66,971.34,1702.05,1003.74Z"/><path class="cls-17" d="M1727,1281.79s9.86,35.34,46.85,39.57c37.33,4.22,59.05-.83,56.47-13.27S1764.69,1269.7,1727,1281.79Z"/><path class="cls-15" d="M2639.51,1453.65s60.16-1.57,81.17-129.66,54.69-152.22,54.69-152.22-22.74-38.57-49.24-19.7c-10.77,23-62.45,115.94-96.13,143.91a95.25,95.25,0,0,0-16.27,16.58C2578,1361.19,2568.17,1450.83,2639.51,1453.65Z"/><path class="cls-11" d="M2993.16,1068c3.26,2.65,121.28,2.11,186.81,79.29-46.35,104.18-84.66,273.61-84.66,273.61s10.44,52.37-18.56,121.93c-29.4,62.72-238.35,63.24-217.79-24.56-8.15-105.76-21.74-327.2-72.63-375.13C2865.87,1062.72,2993.16,1068,2993.16,1068Z"/><path class="cls-15" d="M2916.41,1050.5l-10.1,39.1c-3.41,13.21,2.07,27.42,13.93,34.15,14.49,8.23,38.31,12.76,73.91-5.49a45.88,45.88,0,0,0,24.69-36.4,498.69,498.69,0,0,0,1.11-77.39Z"/><path class="cls-16" d="M3017.14,1015.39l-103.55,46-8.83,34.2c8.72,4.85,22.84,5,45.63-5.79,38.25-18.1,57.73-43.62,67.39-62C3017.49,1020.08,3017.14,1015.39,3017.14,1015.39Z"/><path class="cls-15" d="M2867.72,899.35H2996.1a0,0,0,0,1,0,0v125.37a49.14,49.14,0,0,1-49.14,49.14h-30.1a49.14,49.14,0,0,1-49.14-49.14V899.35A0,0,0,0,1,2867.72,899.35Z" transform="translate(302.23 -642.58) rotate(13.18)"/><polyline class="cls-18" points="2895.87 976.54 2878.06 1016.72 2897.03 1015.76"/><ellipse class="cls-11" cx="2935.87" cy="980.32" rx="10.91" ry="7.15" transform="translate(1009.66 3403.14) rotate(-69.98)"/><ellipse class="cls-11" cx="2878.96" cy="969.96" rx="11.65" ry="4.03" transform="translate(981.96 3342.85) rotate(-69.98)"/><path class="cls-19" d="M2886.55,1035.79s18.45,12.15,34.48-4"/><path class="cls-20" d="M2929.69,945.58s19.42-10.34,27.59,7.46"/><path class="cls-20" d="M2881.81,934.14s14.12-12.29,18.77,4.46"/><path class="cls-11" d="M2985.4,995.84C2986.76,993.37,2975,929,2975,929s-106.62-8.31-125-55.47a14.08,14.08,0,0,1,11.35-18.94,37.91,37.91,0,0,1,13.53,1.1c-5.26-15.77,12.32-45.76,66.92-33.93s140.72,34.56,98.2,78.7c18.07.3,47.86,12.4,41,48.28s-53,84.51-73.8,69.81S2985.4,995.84,2985.4,995.84Z"/><ellipse class="cls-15" cx="3004.76" cy="1001.75" rx="35.1" ry="26.08" transform="translate(606.54 3070.72) rotate(-59.22)"/><ellipse class="cls-16" cx="3003.87" cy="1006.59" rx="14.36" ry="10.67" transform="translate(601.95 3072.32) rotate(-59.22)"/><path class="cls-16" d="M3025.4,994.27a44.58,44.58,0,0,0-4.53-5.8,14.34,14.34,0,0,0-5.24-3.79,6.66,6.66,0,0,0-5.25.32,13.07,13.07,0,0,0-2.57,1.59,19.31,19.31,0,0,0-2.47,2.21l-1.24,1.2c-.41.41-.75.86-1.13,1.29s-.79.83-1.13,1.29-.68.91-1,1.36a11.41,11.41,0,0,0-1,1.4l-.95,1.43c-.53,1-1.18,2-1.64,3a37.11,37.11,0,0,0-2.54,6.57,39,39,0,0,0-1.36,7.23,16.76,16.76,0,0,1-1.05-3.71c-.11-.63-.18-1.28-.25-1.92s-.08-1.3-.08-2a26.24,26.24,0,0,1,1.14-7.79,31,31,0,0,1,8.33-13.46,19.65,19.65,0,0,1,7-4.72,11.25,11.25,0,0,1,4.64-.7,10.39,10.39,0,0,1,4.5,1.37,15,15,0,0,1,5.57,6.18,22,22,0,0,1,1.47,3.62A19.53,19.53,0,0,1,3025.4,994.27Z"/><path class="cls-21" d="M3029.38,904.26a5.1,5.1,0,0,0-1.49.43c-.49.18-1,.38-1.45.57l-2.87,1.23-5.75,2.43c-3.83,1.62-7.7,3.13-11.58,4.63l-5.85,2.17c-2,.67-3.92,1.4-5.91,2-3.95,1.32-7.93,2.56-12,3.56,3.65-2.09,7.42-3.9,11.22-5.61,1.9-.88,3.83-1.66,5.75-2.48l5.81-2.31c3.91-1.45,7.84-2.86,11.84-4.07,2-.61,4-1.16,6.06-1.67,1-.23,2-.47,3.08-.66A11.2,11.2,0,0,1,3029.38,904.26Z"/><path class="cls-11" d="M2966.62,918a54,54,0,0,1-8.19,2.18c-2.77.58-5.56,1-8.36,1.48-5.6.79-11.24,1.38-16.9,1.65a156.38,156.38,0,0,1-34.06-1.85,106.92,106.92,0,0,1-16.69-4.25,72.74,72.74,0,0,1-15.64-7.49A50.71,50.71,0,0,1,2854,898a40.13,40.13,0,0,1-7.21-15.45,48.47,48.47,0,0,0,9.31,13.65,53.89,53.89,0,0,0,13,9.68c9.55,5.19,20.23,8.08,31,10a228.33,228.33,0,0,0,33,3c5.56.13,11.14.16,16.73,0,2.8,0,5.59-.15,8.39-.27,1.4-.05,2.8-.13,4.2-.23A34.36,34.36,0,0,0,2966.62,918Z"/><path class="cls-11" d="M3045.4,902.89a46.11,46.11,0,0,1,12.81-.74,43.45,43.45,0,0,1,12.78,2.9,32.68,32.68,0,0,1,11.26,7.46,22.52,22.52,0,0,1,2.25,2.62,24,24,0,0,1,1.94,2.86,23.41,23.41,0,0,1,1.58,3.07,15.58,15.58,0,0,1,.69,1.57l.56,1.62a39.9,39.9,0,0,1,1.94,13.28c0,.55,0,1.11,0,1.65l-.13,1.65c-.08,1.09-.16,2.19-.29,3.27-.39,2.15-.64,4.32-1.19,6.41a89.66,89.66,0,0,1-9.48,23.74c2-8.25,4.07-16.37,5.12-24.52.18-1,.25-2,.33-3.05l.27-3,.07-3,0-1.51c0-.51,0-1-.07-1.5l-.15-3-.41-2.92a24.69,24.69,0,0,0-.57-2.87l-.33-1.42-.47-1.37a28,28,0,0,0-5.59-9.89,32.21,32.21,0,0,0-9.19-7.08,50,50,0,0,0-11.37-4.19A74,74,0,0,0,3045.4,902.89Z"/><path class="cls-11" d="M3036.55,895.61a43,43,0,0,0,9.89-8.12,21.68,21.68,0,0,0,5.49-10.93l.15-1.51a12.69,12.69,0,0,0,0-1.51,16.74,16.74,0,0,0-.37-3,11,11,0,0,0-.41-1.46c-.16-.48-.29-1-.47-1.44-.45-.92-.82-1.88-1.33-2.77s-1-1.78-1.62-2.63l-1.88-2.5a53.21,53.21,0,0,0-4.34-4.55c-1.48-1.51-3.15-2.83-4.77-4.19s-3.42-2.54-5.1-3.84l-5.32-3.59c-1.83-1.1-3.66-2.23-5.48-3.37-7.39-4.36-15.05-8.31-22.72-12.33A188.78,188.78,0,0,1,3022,838.3a97.5,97.5,0,0,1,21.53,14.86,56.49,56.49,0,0,1,4.54,4.86l2,2.7c.62.94,1.16,1.94,1.72,2.91s.92,2.08,1.38,3.12c.18.54.32,1.1.48,1.64a12,12,0,0,1,.41,1.67,18,18,0,0,1,.32,3.44,14.14,14.14,0,0,1-.07,1.72l-.25,1.71a19.58,19.58,0,0,1-2.48,6.32,26.65,26.65,0,0,1-4.18,5.19A36.91,36.91,0,0,1,3036.55,895.61Z"/><path class="cls-16" d="M3154.2,1148.41s63.91,3.59,9,100.22l-125.72,214.51-67.69-46.39,80.88-248.57S3108.65,1089,3154.2,1148.41Z"/><path class="cls-11" d="M3185.4,1216.73c40.26-87-89.47-151.26-132.9-65.78a208.88,208.88,0,0,0-14.57,37.73l-31.3,95.1,123.58,20.33S3161.91,1267.51,3185.4,1216.73Z"/><path class="cls-16" d="M1650,1761.82s28,175.33-36.86,254.56c-12.9,36.09,60.62,86.46,82,39.08,33.9-49.59,159.89-155.59,157.42-284.08C1835.51,1698.55,1701.83,1598.3,1650,1761.82Z"/><path class="cls-22" d="M1654.7,1884.68c2.85-40.39.31-78.32-2-101.06l35.15-89.16c20.53-19.53,44.21-24,67.16-19,16.79,8.56,35,17.84,49.81,25.42a155.86,155.86,0,0,1,38.27,46.15c2.62,12.94,5.56,28.91,8.58,46.06-7.87,86.62-70.62,161.65-116.4,214.06,10.88-87.08-42-80.31-72.69-112.47A67.28,67.28,0,0,1,1654.7,1884.68Z"/><path class="cls-11" d="M2011,2479.22s29.92,43,96.49,36,58.91,60.7,24.38,58.85l-168.78-2.53s-37.12-7.2-19.16-52.13l18-44.93S1970.79,2503.87,2011,2479.22Z"/><path class="cls-11" d="M1339.12,2198.67s-29.42,43.34.94,103-35.57,76.74-46.22,43.84L1235.75,2187s-6.57-37.23,41.81-36.56l48.38.67S1301.68,2169.92,1339.12,2198.67Z"/><path class="cls-16" d="M1663.78,2078.77s-280.15,92.44-331.31,132.62c-22.43,15.21-56.37-43.72-6.89-63,50.44-18.28,128.84-68.52,183.35-119.56s98.15-74.51,165.77-39.39S1685.69,2079.49,1663.78,2078.77Z"/><path class="cls-15" d="M1866.9,1793.74l71.24,272.7s-15.5,64.81-77.49,36.64c-1.41-21.14-46.49-83.13-87.35-116.94-39.45-38-149.34-160.61-118.35-257.83,18-51.64,54.22-59.94,93.34-51.31C1806.58,1689.86,1851.82,1736,1866.9,1793.74Z"/><path class="cls-15" d="M1939,2065.52s70.78,249.14,75.22,415.51c-8.94,15.41-54.28,19-56-14.46-1.87-36.27-16.25-71-34.62-101.86-16.37-27.51-40.1-49.91-55.45-77.79-32.71-59.43-41.46-138.8-12.46-201.22C1897.15,1996.45,1939,2065.52,1939,2065.52Z"/><path class="cls-16" d="M1620.56,1698.52c10.87-17.7,25.78-35.75,45.83-53.8,60.6,39.2,84.84,73.89,150,64.84,0,0,29,32.45,51.85,91.85l22.66,86.34c.43,2.9.86,5.82,1.23,8.79-47,1.5-169.67,1.5-177.24-93.49-6.78,36.25-14.62,58-28.92,72.49C1648,1824.4,1613.79,1759,1620.56,1698.52Z"/><path class="cls-11" d="M1815.56,1679s56.36,63.4,70.45,174.7c-43.68,1.41-157.8,1.41-164.84-87.35-11.27,60.58-21.13,80.31-74.67,88.76-20.26-24.67-90.47-132.68,38-235.23C1740.85,1656.51,1755,1687.46,1815.56,1679Z"/><path class="cls-16" d="M1954.89,2126.6a106.49,106.49,0,0,1-19.75-14.36,125.37,125.37,0,0,1-16.52-18.14,112.64,112.64,0,0,1-6.76-10.34,93.67,93.67,0,0,1-5.37-11.15,78.29,78.29,0,0,1-3.51-11.86,57.35,57.35,0,0,1-1-12.23,119.7,119.7,0,0,0,3.67,11.46c1.44,3.71,3.11,7.29,4.89,10.8s3.81,6.9,5.91,10.23,4.37,6.56,6.71,9.74c4.71,6.34,9.78,12.45,15.12,18.37S1949.15,2120.83,1954.89,2126.6Z"/><path class="cls-23" d="M1882.49,1836.09s-106.37,28.18-162-89.46c-10.57,19-29.59,108.48-83.13,93"/><path class="cls-22" d="M1654.91,2083.4a20.23,20.23,0,0,1-2.85-9.6,28.31,28.31,0,0,1,1.3-10.2,37.78,37.78,0,0,1,4.42-9.32c.91-1.46,2-2.79,3-4.15s2.22-2.58,3.42-3.77a69.1,69.1,0,0,1,16.08-11.92,81.7,81.7,0,0,1,18.3-7.39c-5.38,3.81-10.78,7.35-15.92,11.13a116.59,116.59,0,0,0-14.45,12.14,57,57,0,0,0-6,7,44.15,44.15,0,0,0-4.68,7.84,32.58,32.58,0,0,0-2.69,8.77A26.76,26.76,0,0,0,1654.91,2083.4Z"/><path class="cls-14" d="M2154.79,1485.82l-171.06,10.07-53.62,7.63-23.35,22a34.61,34.61,0,0,0-10.53,30.06h0a34.62,34.62,0,0,0,42.74,28.69l222-66.66Z"/><path class="cls-14" d="M1974.29,1550.39l-67.48-102c-16-37.84-25-81.08-61.71-99.59-26-13.11-53.22-18-67,6.87-.4,16.49-3.72,38.68,56.48,109.11l61.41,92.13c19.47,28.1,61.51,25.15,77.49-5.08Z"/><path class="cls-14" d="M1878.64,1412.44c14.42,43.37,22.73,101.34-18.4,136.76-20.4,10-25.75,5.42-25.75,5.42s-25.61,69.05-36,129.48a43.23,43.23,0,0,1-45,35.83c-39.62-2.2-94-15.43-96.9-55.18,17.33-64.9,30.31-193,10.68-223.08l-13.6-22.7a69.37,69.37,0,0,1,44.86-78.74l54.84-19.48,55.7,12h0C1841.82,1349.19,1867.1,1377.69,1878.64,1412.44Z"/><path class="cls-15" d="M1815.18,1338.54c1.66-2.28-.89-47.9-.89-47.9l-62.92-49.55-6.73,93.12S1786.79,1377.58,1815.18,1338.54Z"/><path class="cls-16" d="M1814.71,1298.77c.33,6.71.75,16.38.94,24.56-11.72-1.47-53-13.69-53.93-74.09l50.79,40C1813.35,1292.56,1814.07,1295.74,1814.71,1298.77Z"/><path class="cls-15" d="M1799.18,1138.35h28.18a46,46,0,0,1,46,46v117.41a0,0,0,0,1,0,0H1753.16a0,0,0,0,1,0,0V1184.37A46,46,0,0,1,1799.18,1138.35Z" transform="translate(3346.6 2777.45) rotate(-168.49)"/><path class="cls-12" d="M1789.5,1156.48s22.88,55.18-30.12,54.22c-14.27,24.54-19.9,48.17-43.58,39.26-13.75-5.17-22.85-18.26-24.47-32.86-4.26-38.52,5.34-105.3,51.85-119,10.75-3.17,22.64-1.24,30.91,6.32,3.33,3,5.84,6.68,6.26,10.53,10.84-13.44,61.25-36.76,119.94-9s57.83,81.68-1.69,99.36c0,0-15.67,3.56-22.51,1.46,6.55-27.15,7.19-30,7.19-30S1829.22,1157,1789.5,1156.48Z"/><polyline class="cls-18" points="1846.28 1221.74 1845.71 1262.89 1829.95 1254.65"/><ellipse class="cls-11" cx="1810.76" cy="1209.3" rx="10.21" ry="6.69" transform="translate(458 2915.56) rotate(-85.33)"/><ellipse class="cls-11" cx="1863.24" cy="1222.75" rx="10.91" ry="3.77" transform="translate(492.8 2980.22) rotate(-85.33)"/><path class="cls-18" d="M1830.58,1178.55s-16.44-12.42-26.62,2.84"/><path class="cls-18" d="M1874.13,1192.8s-4.18-17-16.77-6.72"/><ellipse class="cls-15" cx="1747.01" cy="1227.6" rx="24.42" ry="32.87" transform="translate(-120.29 192.11) rotate(-6.08)"/><ellipse class="cls-16" cx="1746.04" cy="1225.9" rx="9.23" ry="12.43" transform="translate(-154.22 256.11) rotate(-8.04)"/><path class="cls-16" d="M1733,1208.86a19.23,19.23,0,0,1,4.28-5.13,12.84,12.84,0,0,1,6.52-3.07,8.9,8.9,0,0,1,4,.41,9.91,9.91,0,0,1,3.48,2.11,17,17,0,0,1,4,6.11,26.76,26.76,0,0,1,2.15,13.53,22.58,22.58,0,0,1-1.7,6.61,17.76,17.76,0,0,1-3.64,5.59,32.73,32.73,0,0,0,1.33-6.23,31.85,31.85,0,0,0,.18-6.08,34.09,34.09,0,0,0-2.8-11.51,16.24,16.24,0,0,0-1.24-2.58,11.5,11.5,0,0,0-1.51-2.14,5.8,5.8,0,0,0-4.09-2,12.51,12.51,0,0,0-5.45,1.27A37.72,37.72,0,0,0,1733,1208.86Z"/><path class="cls-16" d="M1827.61,1274.74s.27-15.14-22.56-12.24C1809.63,1270,1816.72,1274.48,1827.61,1274.74Z"/><path class="cls-24" d="M1831,1275.79s-20.44,3.13-27.77-16.87"/><path class="cls-16" d="M1813.59,1282.85s-7.08,0-11-5.45C1799.6,1286.7,1811.05,1290,1813.59,1282.85Z"/><path class="cls-25" d="M1884.22,1176.24a138.25,138.25,0,0,0,16-1,47.91,47.91,0,0,0,14.54-4,24.1,24.1,0,0,0,10.42-9.7c2.46-4.31,3.75-9.47,4.75-14.89a39.8,39.8,0,0,1,.75,4.09,29.33,29.33,0,0,1,.16,4.2l-.12,2.14-.34,2.12a13.08,13.08,0,0,1-.51,2.12,15.86,15.86,0,0,1-.67,2.09l-.87,2.05c-.35.65-.74,1.29-1.11,1.94a15.7,15.7,0,0,1-1.29,1.85,14.12,14.12,0,0,1-1.46,1.72,25.4,25.4,0,0,1-7.21,5.31,36.7,36.7,0,0,1-16.8,3.4A44,44,0,0,1,1884.22,1176.24Z"/><path class="cls-12" d="M1923.37,1134.18c-.21-1.7-.1-3.37-.22-5a43.05,43.05,0,0,0-.48-4.85,37.12,37.12,0,0,0-2.54-9.08,35.81,35.81,0,0,0-11.41-14.24c-.59-.51-1.25-.94-1.88-1.39s-1.27-.92-2-1.31l-2-1.26-2.08-1.15c-1.36-.83-2.85-1.43-4.26-2.19-.72-.35-1.47-.65-2.21-1s-1.46-.69-2.22-1c-6-2.5-12.25-4.55-18.62-6.77a72.39,72.39,0,0,1,20.07,2.59q2.46.7,4.89,1.56c1.6.65,3.22,1.22,4.77,2a47.49,47.49,0,0,1,9,5.43,33.57,33.57,0,0,1,12.12,17.23,30.86,30.86,0,0,1,1.13,10.43,34.6,34.6,0,0,1-.72,5.1q-.29,1.25-.63,2.46C1923.83,1132.57,1923.55,1133.36,1923.37,1134.18Z"/><path class="cls-25" d="M1725.34,1250.22a42.18,42.18,0,0,1-23.34-.59,33.42,33.42,0,0,1-10.77-5.8,32.68,32.68,0,0,1-7.94-9.49,38.91,38.91,0,0,1-4.09-11.49c-.17-1-.38-2-.51-3l-.28-3a27.14,27.14,0,0,1-.14-3v-3a74.33,74.33,0,0,1,4.57-22.8,185.23,185.23,0,0,0-.14,22.7c.65,7.36,2.11,14.6,5.52,20.75a31.58,31.58,0,0,0,6.47,8.16,34.65,34.65,0,0,0,8.9,5.74A60.37,60.37,0,0,0,1725.34,1250.22Z"/><path class="cls-25" d="M1722.64,1244.84a18.86,18.86,0,0,1-.51,13,19.91,19.91,0,0,1-3.62,5.86,22.16,22.16,0,0,1-5.36,4.35,28.09,28.09,0,0,1-3.06,1.52,27.09,27.09,0,0,1-3.19,1.06,31.08,31.08,0,0,1-6.5,1,33.89,33.89,0,0,1-12.64-1.8c4.17-.93,8.18-1.6,12-2.59,1.89-.54,3.76-1,5.52-1.73a30.16,30.16,0,0,0,5-2.35,22.84,22.84,0,0,0,7.88-7.36A32.55,32.55,0,0,0,1722.64,1244.84Z"/><path class="cls-25" d="M1792.69,1081.94a106.25,106.25,0,0,0-12-4.68,110.55,110.55,0,0,0-12.4-3.29,91.74,91.74,0,0,0-12.6-1.74,72.58,72.58,0,0,0-12.6.14,62.41,62.41,0,0,0-12.23,2.39,52.77,52.77,0,0,0-11.36,4.84l-1.36.75c-.45.25-.86.56-1.3.83l-2.59,1.68c-.83.61-1.64,1.26-2.46,1.88l-1.23.94c-.4.32-.77.69-1.16,1l-2.29,2.08c-.77.7-1.44,1.5-2.16,2.24s-1.46,1.47-2.11,2.29l-2,2.42a100.45,100.45,0,0,0-7.18,10.34c-1.11,1.8-2.13,3.66-3.2,5.48s-2,3.74-2.91,5.63-1.87,3.79-2.66,5.75c-.41,1-.85,1.93-1.22,2.92l-1.11,3c-.39,1-.69,2-1,3s-.67,2-.93,3l-.87,3-.72,3.07a78.68,78.68,0,0,0-1.58,25.15,68.74,68.74,0,0,0,2.45,12.5,59.6,59.6,0,0,0,2.15,6.05,42.58,42.58,0,0,0,2.87,5.78,46.41,46.41,0,0,1-6.49-11.3,66.91,66.91,0,0,1-3.72-12.63,72.58,72.58,0,0,1-1.17-13.18,81.38,81.38,0,0,1,1.17-13.21,100.29,100.29,0,0,1,8-25.21c.9-2,2-4,3-5.92s2.14-3.86,3.27-5.74a103.1,103.1,0,0,1,7.49-11l2.14-2.59c.7-.87,1.54-1.63,2.3-2.45s1.53-1.64,2.36-2.4l2.53-2.24c.43-.37.83-.76,1.28-1.11l1.35-1c.9-.67,1.79-1.36,2.71-2a58.7,58.7,0,0,1,5.81-3.48,61,61,0,0,1,25.82-6.92,80,80,0,0,1,26.17,3.3,99.15,99.15,0,0,1,12.29,4.51A80.55,80.55,0,0,1,1792.69,1081.94Z"/><path class="cls-26" d="M1638.65,1077.71c-1.41,2.82,6.34,64.1-9.86,64.1s-33.11,26.07-9.87,35.93"/><path class="cls-26" d="M1816.87,1067.14s19.73-78.89-76.78-75.37-77.49,69.74-77.49,69.74"/><path class="cls-14" d="M1546.61,1584.21l82.45-90.3c32.79-24.78,72.54-44,81.54-84.13,6.38-28.42,4.48-56-23-63.29-16.09,3.64-38.42,5.82-92,81.38l-82.71,84c-22.51,25.74-1.06,63.77,32.15,71.89Z"/><path class="cls-14" d="M1653.24,1743.52l-51.47-163.44-20.48-50.14-27-17.28a34.62,34.62,0,0,0-31.73-2.88h0a34.61,34.61,0,0,0-17.4,48.44l118.77,199Z"/><polygon class="cls-15" points="1652.77 1732.74 1683.43 1730.26 1708.29 1749.32 1703.32 1760.92 1719.89 1788.27 1714.09 1809.82 1680.11 1838.83 1644.48 1826.39 1621.27 1750.98 1652.77 1732.74"/><path class="cls-16" d="M1719.89,1788.27s-27.34,26.52-40.6,28.18-34.81,9.94-34.81,9.94l35.63,12.44,34-29Z"/><rect class="cls-9" x="2942.86" y="1832.99" width="1472.56" height="49.3" transform="translate(5536.79 -1821.5) rotate(90)"/><rect class="cls-11" x="1707.74" y="1832.99" width="1472.56" height="49.3" transform="translate(4301.67 -586.38) rotate(90)"/><rect class="cls-11" x="2925.96" y="1832.99" width="1472.56" height="49.3" transform="translate(5519.89 -1804.59) rotate(90)"/><rect class="cls-3" x="2401.28" y="1138.27" width="1300.97" height="49.3"/><rect class="cls-9" x="2401.28" y="1120.65" width="1300.97" height="49.3"/><rect class="cls-9" x="1688.95" y="1832.99" width="1472.56" height="49.3" transform="translate(4282.88 -567.59) rotate(90)"/><path class="cls-14" d="M1727,1281.79s36.63,44.14,103.32,26.3l-3.76,34.75s-29.11,44.15-105.19-10.33C1727,1318.42,1727,1281.79,1727,1281.79Z"/><path class="cls-14" d="M1878.64,1412.44c14.42,43.37,22.73,101.34-18.4,136.76-20.4,10-26.87,24-26.87,24s-3,47.35-13.38,107.78c-3.72,21.62-44.57,40.18-66.48,39-39.62-2.2-112.4-11.88-115.27-51.64,17.34-64.89,23.86-184.73,4.23-214.85l11.22-34.47a69.37,69.37,0,0,1,44.86-78.74l54.84-19.48,55.7,12h0C1841.82,1349.19,1867.1,1377.69,1878.64,1412.44Z"/><path class="cls-17" d="M1828.44,1361.16a72.44,72.44,0,0,1,7.91,7.76c2.47,2.76,4.8,5.66,7,8.63a151.52,151.52,0,0,1,11.85,18.86,187.36,187.36,0,0,1,9.32,20.26,222.2,222.2,0,0,1,6.91,21.2l1.37,5.4,1.21,5.44c.42,1.81.76,3.64,1.11,5.46s.72,3.64,1,5.48c.5,3.67,1.13,7.33,1.5,11l.62,5.53.4,5.54a237,237,0,0,1-.9,44.26c-.64-14.73-1.63-29.35-3.47-43.83a316.14,316.14,0,0,0-8.28-42.84c-1.85-7-4-14-6.46-20.8s-5.22-13.55-8.24-20.16c-1.5-3.31-3.18-6.54-4.85-9.77-.82-1.63-1.74-3.2-2.6-4.8s-1.82-3.16-2.77-4.71c-1.85-3.15-3.87-6.19-5.94-9.2A104.17,104.17,0,0,0,1828.44,1361.16Z"/><path class="cls-17" d="M1583.3,1539.15c-2.58-1.26-4.91-2.21-7.24-3.09s-4.61-1.6-6.94-2.3c-1.18-.3-2.34-.68-3.55-1-.6-.14-1.19-.34-1.8-.47s-1.22-.28-1.84-.44c-1.22-.35-2.49-.56-3.77-1a30.63,30.63,0,0,1-4-1.19,17.83,17.83,0,0,1,1.94-.89,18.93,18.93,0,0,1,2-.69,25.32,25.32,0,0,1,4.15-.69,22.16,22.16,0,0,1,4.23.07,19.13,19.13,0,0,1,2.11.3l2.08.5a22.54,22.54,0,0,1,7.61,3.9A14.41,14.41,0,0,1,1583.3,1539.15Z"/><path class="cls-17" d="M1681,1354.11a56.74,56.74,0,0,1,7.75,11.18,76.44,76.44,0,0,1,5.42,12.6,78.91,78.91,0,0,1,3.09,13.46,76.39,76.39,0,0,1,.56,13.86c-.08,2.31-.38,4.61-.64,6.91-.42,2.28-.74,4.58-1.34,6.81a74.32,74.32,0,0,1-4.43,13.08,80,80,0,0,1-15.11,22.6,149.21,149.21,0,0,0,11-24.21c.39-1,.67-2.08,1-3.12s.66-2.08.91-3.14c.51-2.11,1.09-4.21,1.45-6.35a84.58,84.58,0,0,0,1.58-12.87,92.11,92.11,0,0,0-.24-13,100.91,100.91,0,0,0-2-12.88,102,102,0,0,0-3.67-12.66A100.69,100.69,0,0,0,1681,1354.11Z"/><path class="cls-17" d="M1721.37,1332.51a49.11,49.11,0,0,0,10.1,6.93c.87.4,1.71.87,2.62,1.24s1.83.78,2.76,1.22,2,.77,3,1.29a24,24,0,0,1,3.17,1.53,16.34,16.34,0,0,1-3.43,1.23,19.34,19.34,0,0,1-3.57.3,16.45,16.45,0,0,1-3.61-.51,13.73,13.73,0,0,1-1.76-.54l-1.71-.75a15.33,15.33,0,0,1-5.58-4.91A10.36,10.36,0,0,1,1721.37,1332.51Z"/><path class="cls-17" d="M1942.09,1503.45c-2.84,1.47-5.52,2.68-8.13,3.92s-5.12,2.48-7.49,3.84a43.43,43.43,0,0,0-6.66,4.62,40.16,40.16,0,0,0-5.9,6.41,11.42,11.42,0,0,1,0-2.41,12.24,12.24,0,0,1,.45-2.4,16.42,16.42,0,0,1,2.07-4.48,21.16,21.16,0,0,1,3.24-3.76,25.67,25.67,0,0,1,4-2.86,27.05,27.05,0,0,1,9-3.18A22.36,22.36,0,0,1,1942.09,1503.45Z"/><path class="cls-17" d="M1833.37,1569.67a110.8,110.8,0,0,1-3.77,25.57,131.85,131.85,0,0,1-9,24.38,106.33,106.33,0,0,1-14.07,22,84.7,84.7,0,0,1-9.13,9.33,68.87,68.87,0,0,1-10.55,7.53c3-3.14,5.92-6.18,8.58-9.47.7-.79,1.32-1.64,2-2.46s1.32-1.63,1.92-2.5,1.25-1.69,1.88-2.52l1.79-2.59a171.14,171.14,0,0,0,12.53-21.74,247.85,247.85,0,0,0,9.81-23.23C1828.31,1586,1830.93,1577.92,1833.37,1569.67Z"/><path class="cls-17" d="M1649.51,1614.05c.83,5.17,1.17,10.23,1.58,15.27s.74,10,1.21,15,1,9.87,1.91,14.71a51.89,51.89,0,0,0,4.46,14.22,21.1,21.1,0,0,1-5.28-5.88,38.16,38.16,0,0,1-3.45-7.17,62.27,62.27,0,0,1-3.25-15.35,87.56,87.56,0,0,1,0-15.53A75.77,75.77,0,0,1,1649.51,1614.05Z"/><path class="cls-17" d="M2134.17,1487.25s14.79,19.73,8.45,35.93c3.27,3.59,9.4,3.55,15.05,2.47a13.57,13.57,0,0,0,10.73-15.8c-2.11-11.64-6.47-27.86-14.51-29.64A19.58,19.58,0,0,0,2134.17,1487.25Z"/><path class="cls-17" d="M1642.12,1712.31s-13.08,20.9-30.47,20.82c-2.18,4.34.07,10,3.1,14.93a13.59,13.59,0,0,0,18.61,4.33c10.1-6.17,23.66-16.07,22.43-24.21C1653.86,1715.33,1642.12,1712.31,1642.12,1712.31Z"/><path class="cls-27" d="M1796,1312.55l2.82,38.74s66.92,154.28-5.64,211.34c-18.32,16.2-3.52,136.66-35.22,154.27"/><path class="cls-17" d="M1874.47,1530.69c-1.7-2.25-36.64,13.15-53.54-16-30.06,13.15-78.9,30.06-120.23,16s-44.14-10.33-23.48,23.48,49.78,51.66,104.26,28.18,56.35-17.84,56.35-17.84S1880.1,1538.21,1874.47,1530.69Z"/><path class="cls-14" d="M1820,1520.36a100.81,100.81,0,0,1-6.14,13.42q-3.46,6.43-7.47,12.54t-8.49,11.88a97.87,97.87,0,0,1-9.84,11,99.51,99.51,0,0,1,6.13-13.42q3.48-6.45,7.48-12.54c2.67-4.07,5.49-8,8.5-11.88A99.67,99.67,0,0,1,1820,1520.36Z"/><path class="cls-1" d="M1732.64,1296.82l-1.49,37.59v.27l-.28.09c-5.2,1.57-10.36,3.39-15.44,5.35-2.56,1-5.06,2-7.59,3s-5,2.13-7.48,3.31a209.79,209.79,0,0,0-28.61,15.66,139.3,139.3,0,0,0-13,9.73,158,158,0,0,0-11.76,11.27c-7.59,7.83-15,15.82-22.55,23.76q-44.87,47.76-88.51,96.67c-3.61,4.09-7.22,8.19-10.75,12.33-1.77,2.08-3.53,4.16-5.24,6.26-.84,1.06-1.7,2.12-2.49,3.18-.37.53-.83,1.09-1.11,1.58a7.52,7.52,0,0,0-.45.78l-.35.86a21.67,21.67,0,0,0-1.23,7.55,45.94,45.94,0,0,0,.82,7.9,71.75,71.75,0,0,0,4.92,15.29,93.64,93.64,0,0,0,7.79,14.15l1.12,1.68,1.12,1.76c.74,1.17,1.5,2.33,2.21,3.51l4.14,7.1c5.36,9.55,10.52,19.19,15.64,28.85q15.32,29,30.19,58.2c9.88,19.5,19.76,39,29.44,58.59l-30.59-58c-10.22-19.31-20.42-38.64-30.86-57.83q-7.82-14.4-15.9-28.63l-4.13-7c-.7-1.16-1.45-2.28-2.17-3.41l-1.09-1.7-1.16-1.73a95.72,95.72,0,0,1-8-14.49,74.57,74.57,0,0,1-5.15-15.83,48.61,48.61,0,0,1-.89-8.38,24,24,0,0,1,1.39-8.52l.42-1a8.48,8.48,0,0,1,.57-1c.4-.7.82-1.18,1.23-1.78.83-1.13,1.69-2.2,2.55-3.28,1.73-2.14,3.48-4.24,5.25-6.33,3.54-4.18,7.14-8.3,10.75-12.41,14.43-16.44,29.24-32.52,44-48.6s29.74-32,44.78-47.91q11.27-11.91,22.8-23.58a162.39,162.39,0,0,1,12-11.26,138.64,138.64,0,0,1,13.32-9.72,209.52,209.52,0,0,1,29-15.46c2.49-1.13,5-2.12,7.57-3.18s5.1-2,7.68-2.92c5.14-1.88,10.33-3.61,15.61-5.1l-.28.36Z"/><path class="cls-1" d="M1829.38,1345.66a75,75,0,0,1,19.94,10.9,77.7,77.7,0,0,1,16.13,16.16c1.07,1.58,2.19,3.14,3.22,4.76l2.84,5,2.42,5.22c.81,1.74,1.51,3.47,2.27,5.2,3,6.92,6.34,13.74,9.8,20.47,6.88,13.49,14,26.85,21.39,40.11l11,19.88,5.52,10c1.83,3.34,3.65,6.66,5.31,10.17l-.16-.27,1.66,2.08,1.76,2a43.73,43.73,0,0,0,3.8,3.66,30.41,30.41,0,0,0,4.23,3,22.23,22.23,0,0,0,2.28,1.16c.39.17.78.31,1.16.45a9.09,9.09,0,0,0,1.07.28h-.36q18.26-2.73,36.54-5.22c12.18-1.7,24.4-3.16,36.62-4.62s24.45-2.79,36.71-3.85l9.2-.75,9.21-.62c3.07-.2,6.14-.3,9.22-.43s6.15-.07,9.22-.11c-3.07.16-6.14.22-9.21.46s-6.13.42-9.19.72l-9.17.89-9.16,1c-12.21,1.45-24.41,2.92-36.59,4.58s-24.35,3.44-36.52,5.14-24.34,3.54-36.48,5.42l-.2,0-.17,0a9.84,9.84,0,0,1-1.56-.39c-.47-.16-.94-.33-1.39-.52a24.89,24.89,0,0,1-2.58-1.3,31.75,31.75,0,0,1-4.63-3.29,45.15,45.15,0,0,1-4.07-3.87l-1.86-2.08-1.75-2.17-.07-.09-.09-.18c-3.32-6.66-7-13.34-10.67-20l-11-20c-7.23-13.34-14.47-26.69-21.11-40.36-3.34-6.82-6.53-13.72-9.48-20.75-.73-1.75-1.42-3.54-2.18-5.26l-2.28-5.14-2.7-4.94c-1-1.59-2-3.14-3.07-4.72a76.65,76.65,0,0,0-15.45-16.37l-2.24-1.74c-.75-.57-1.54-1.09-2.31-1.63-1.53-1.12-3.16-2.07-4.76-3.08A67.27,67.27,0,0,0,1829.38,1345.66Z"/><path class="cls-15" d="M2702.89,1110.84h0a64.09,64.09,0,0,1,40.58-13.78l21.16.28a46.7,46.7,0,0,1,39.82,23.35l.82,1.43-25.36,56.35-17.39,6.14a46.3,46.3,0,0,1-44-.3l-7.22-4Z"/><path class="cls-16" d="M2702.89,1110.84l102.38,11.28-3.28-5.69a38,38,0,0,0-32.44-19l-35.33-.47a38,38,0,0,0-24.07,8.17Z"/><polygon class="cls-15" points="2706.65 1110.85 2690.68 1121.18 2639.02 1116.48 2665.32 1144.66 2725.43 1170.96 2706.65 1110.85"/><path class="cls-15" d="M2998.66,1475s-59.86-6.19-70.95-135.52-42.82-156-42.82-156,25.65-36.71,50.61-15.85c9,23.78,53.35,120.41,84.77,150.88a94.89,94.89,0,0,1,15,17.79C3067.07,1387.54,3070,1477.68,2998.66,1475Z"/><path class="cls-15" d="M2949.91,1113.66h0a64.09,64.09,0,0,0-40.58-13.78l-21.16.28a46.67,46.67,0,0,0-39.81,23.35l-.83,1.42,25.36,56.36,17.39,6.14a46.3,46.3,0,0,0,44-.3l7.22-4Z"/><path class="cls-16" d="M2949.91,1113.66l-102.38,11.27,3.28-5.68a38.05,38.05,0,0,1,32.44-19l35.33-.47a38,38,0,0,1,24.07,8.18Z"/><polygon class="cls-15" points="2946.16 1113.66 2962.12 1123.99 3013.78 1119.3 2987.48 1147.48 2927.37 1173.78 2946.16 1113.66"/><path class="cls-9" d="M2958.37,1826.56c-4.42-13-8.3-26.19-12-39.4-1.9-6.59-3.6-13.23-5.39-19.84l-5.08-19.92-4.79-20c-1.49-6.69-3.09-13.35-4.47-20.07-2.89-13.41-5.58-26.86-7.73-40.45,4.42,13,8.31,26.19,12,39.39,1.9,6.6,3.59,13.24,5.39,19.85l5.08,19.93,4.78,20c1.49,6.69,3.08,13.36,4.47,20.07C2953.52,1799.52,2956.21,1813,2958.37,1826.56Z"/><path class="cls-9" d="M2894.5,1655.61a76.09,76.09,0,0,1,12.25,3.66c3.95,1.51,7.79,3.22,11.55,5.09s7.43,3.93,11,6.18a74.42,74.42,0,0,1,10.28,7.62,75.21,75.21,0,0,1-12.26-3.66,125.11,125.11,0,0,1-11.54-5.1c-3.76-1.88-7.43-3.93-11-6.18A74.34,74.34,0,0,1,2894.5,1655.61Z"/><path class="cls-9" d="M3296.5,2142.15c-81.25-28.26-157.49-20-174.13-22,102.19,82.13,230.13,177.78,264.3,204.23,80.77,13.15,78.89-93.92,78.89-93.92C3411.09,2305.58,3382.91,2172.2,3296.5,2142.15Z"/><path class="cls-1" d="M3073.74,1548.69c10.31,64.85,16.59,130.33,20.35,195.92l1.2,24.62c.23,4.1.35,8.2.48,12.31l.41,12.32.37,12.31.16,12.33.16,12.32c0,4.11.15,8.22.09,12.33l-.16,24.65-.05,6.16-.17,6.17-.36,12.32-.37,12.32-.09,3.09v2.93a28.6,28.6,0,0,0,.14,2.93,28.31,28.31,0,0,0,.3,2.92,48.21,48.21,0,0,0,2.9,11.34c.38.9.67,1.84,1.12,2.71l1.28,2.64a56.46,56.46,0,0,0,3.06,5,49.1,49.1,0,0,0,17.29,15.49,27.84,27.84,0,0,0,2.63,1.29c.87.42,1.76.83,2.73,1.23l5.67,2.4c3.78,1.61,7.56,3.23,11.32,4.89q22.62,9.87,44.66,21.09c29.3,15.06,57.51,32.4,83.56,52.65a439.71,439.71,0,0,1,70.87,68.72,435,435,0,0,1,53.34,82.9l-.06-.1,5.78,8.24c2.08,2.62,4.12,5.29,6.26,7.88l3.34,3.77,1.67,1.89c.56.62,1.17,1.19,1.76,1.79l3.55,3.57c1.21,1.16,2.5,2.24,3.74,3.37a98.44,98.44,0,0,0,16.33,11.75c1.49.77,3,1.59,4.48,2.31s3,1.43,4.63,2a41.06,41.06,0,0,0,9.73,2.61,40.72,40.72,0,0,1-9.83-2.35c-1.61-.51-3.14-1.23-4.71-1.86s-3.05-1.47-4.57-2.2a95,95,0,0,1-16.74-11.46c-1.27-1.11-2.6-2.17-3.84-3.32l-3.66-3.52c-.61-.6-1.24-1.17-1.82-1.78l-1.72-1.86-3.45-3.74c-2.21-2.57-4.32-5.22-6.48-7.83l-6-8.19,0,0,0-.07a436.93,436.93,0,0,0-125.23-148.94,488.44,488.44,0,0,0-40.38-27.75q-20.84-12.9-42.71-24.06t-44.42-20.87l-11.29-4.86-5.65-2.41c-.93-.38-1.91-.84-2.89-1.3s-2-.86-2.88-1.43a54.05,54.05,0,0,1-19-17.09,58,58,0,0,1-3.35-5.5l-1.4-2.9c-.49-1-.81-2-1.23-3a53,53,0,0,1-3.16-12.46,31,31,0,0,1-.32-3.2c-.06-1.07-.18-2.14-.14-3.21v-3.22l.1-3.07.39-12.29.41-12.28.21-6.14.08-6.15.32-24.58c.09-4.1,0-8.2,0-12.3l-.08-12.29-.08-12.3L3092,1794l-.25-12.29c-.08-4.1-.15-8.2-.32-12.3l-.89-24.58c-1.42-32.77-3.63-65.51-6.37-98.21S3078,1581.24,3073.74,1548.69Z"/></g></svg>