<svg xmlns="http://www.w3.org/2000/svg" viewBox="0 0 32 32"><g id="muscle"><path d="M29.87,16a7.6,7.6,0,0,0-1.79-3.83L21.77,4.75A5.46,5.46,0,0,0,14,4.21l-3.36,3a3,3,0,0,0-1,2.23,3,3,0,0,0,1,2.26,5.14,5.14,0,0,0,.68.53,6.59,6.59,0,0,0,2.22,1,3.76,3.76,0,0,0,3.32-.91l.61-.54h0A6,6,0,0,1,19,15a5.83,5.83,0,0,1,0,1.72l-.28-.1a7.66,7.66,0,0,0-5.7.7,6.15,6.15,0,0,0-.53-.49,6.25,6.25,0,0,0-4.67-1.45,6.32,6.32,0,0,0-4.33,2.35,6.6,6.6,0,0,0,.89,9.14,6.29,6.29,0,0,0,4,1.48q.32,0,.63,0a6.78,6.78,0,0,0,1.57-.37,17.61,17.61,0,0,0,5,1.07l1,0a19.15,19.15,0,0,0,10.94-3.68,1.06,1.06,0,0,0,.27-.29A13.54,13.54,0,0,0,29.87,16Zm-3.68,7.85A16.9,16.9,0,0,1,15.67,27a14.92,14.92,0,0,1-2.88-.47,7.55,7.55,0,0,0,.54-.59,1,1,0,0,0-1.56-1.25,4.35,4.35,0,0,1-3,1.62,4.29,4.29,0,0,1-3.19-1A4.58,4.58,0,0,1,5,18.94a4.31,4.31,0,0,1,6.16-.63A4.49,4.49,0,0,1,12.4,20a1,1,0,0,0,1.84-.79l-.13-.26a5.51,5.51,0,0,1,4-.45,5.35,5.35,0,0,1,2.25,1.35,1,1,0,0,0,1.41,0,1,1,0,0,0,0-1.41,8.33,8.33,0,0,0-1-.81,7.94,7.94,0,0,0,.15-3,8.06,8.06,0,0,0-2.29-4.55A.61.61,0,0,0,18.7,10l.53-1.31a1,1,0,1,0-1.85-.75l-.53,1.31a2.74,2.74,0,0,1-.74,1l-.61.54a1.78,1.78,0,0,1-1.55.45,4.6,4.6,0,0,1-1.54-.67,4.52,4.52,0,0,1-.47-.37,1,1,0,0,1-.34-.77,1,1,0,0,1,.33-.74l3.36-3a3.45,3.45,0,0,1,5,.35l6.31,7.38a5.73,5.73,0,0,1,1.34,2.85A11.49,11.49,0,0,1,26.19,23.81Z"/></g></svg>