<svg xmlns="http://www.w3.org/2000/svg" viewBox="0 0 32 32"><g id="pulse"><path d="M29,16h-.59c.14-.23.3-.45.43-.68A8.05,8.05,0,0,0,29,7.2,7.3,7.3,0,0,0,16,7.35,7.3,7.3,0,0,0,3.05,7.2a8.05,8.05,0,0,0,.11,8.12c.13.23.29.45.43.68H3a1,1,0,0,0,0,2H4.94l.18.26a37.33,37.33,0,0,0,10.35,9.59,1,1,0,0,0,1.06,0,37.33,37.33,0,0,0,10.35-9.59l.18-.26H29a1,1,0,0,0,0-2ZM4.87,14.28a6.07,6.07,0,0,1-.08-6.1,5.39,5.39,0,0,1,4.7-2.84,5.4,5.4,0,0,1,4.87,3.21l.74,1.55a1,1,0,0,0,1.8,0l.74-1.55a5.3,5.3,0,0,1,9.57-.37,6.07,6.07,0,0,1-.08,6.1c-.35.59-.72,1.16-1.11,1.72H20a1,1,0,0,0-.8.4l-2,2.71-3.28-6.56a1,1,0,0,0-1.78,0L10.38,16H6C5.59,15.44,5.22,14.87,4.87,14.28ZM16,25.82A35.09,35.09,0,0,1,7.45,18H11a1,1,0,0,0,.89-.55L13,15.24l3.11,6.21a1,1,0,0,0,.8.55H17a1,1,0,0,0,.8-.4L20.5,18h4.05A35.09,35.09,0,0,1,16,25.82Z"/></g></svg>