<svg xmlns="http://www.w3.org/2000/svg" viewBox="0 0 32 32"><g id="pulse_2" data-name="pulse 2"><path d="M22,8.12v-4A2.16,2.16,0,0,0,19.84,2H12.16A2.16,2.16,0,0,0,10,4.16v4a2.73,2.73,0,0,0-2,2.63v10.5a2.73,2.73,0,0,0,2,2.63v4A2.16,2.16,0,0,0,12.16,30h7.68A2.16,2.16,0,0,0,22,27.84v-4a2.73,2.73,0,0,0,2-2.63V10.75A2.73,2.73,0,0,0,22,8.12Zm-10-4A.16.16,0,0,1,12.16,4h7.68a.16.16,0,0,1,.16.16V8H12Zm8,23.68a.16.16,0,0,1-.16.16H12.16a.16.16,0,0,1-.16-.16V24h8Zm2-6.59a.74.74,0,0,1-.75.75H10.75a.74.74,0,0,1-.75-.75V10.75a.74.74,0,0,1,.75-.75h10.5a.74.74,0,0,1,.75.75Z"/><path d="M20,15H18a1,1,0,0,0-.89.55l-.11.21-1.11-2.21a1,1,0,0,0-1.78,0L13.38,15H12a1,1,0,0,0,0,2h2a1,1,0,0,0,.89-.55l.11-.21,1.11,2.21a1,1,0,0,0,1.78,0L18.62,17H20a1,1,0,0,0,0-2Z"/></g></svg>