<svg xmlns="http://www.w3.org/2000/svg" viewBox="0 0 32 32"><g id="weightlifting"><path d="M27,7V6.26A2.27,2.27,0,0,0,24.74,4H23.26A2.27,2.27,0,0,0,21,6.26V7H11V6.26A2.27,2.27,0,0,0,8.74,4H7.26A2.27,2.27,0,0,0,5,6.26V7a3,3,0,0,0,0,6v.74A2.27,2.27,0,0,0,7.26,16H8.74A2.27,2.27,0,0,0,11,13.74V13h1v7H10a3,3,0,0,0-3,3v4a1,1,0,0,0,0,2H9a1,1,0,0,0,0-2V23a1,1,0,0,1,1-1H22a1,1,0,0,1,1,1v4a1,1,0,0,0,0,2h2a1,1,0,0,0,0-2V23a3,3,0,0,0-3-3H20V13h1v.74A2.27,2.27,0,0,0,23.26,16h1.48A2.27,2.27,0,0,0,27,13.74V13a3,3,0,0,0,0-6ZM4,10A1,1,0,0,1,5,9v2A1,1,0,0,1,4,10Zm5,3.74a.26.26,0,0,1-.26.26H7.26A.26.26,0,0,1,7,13.74V6.26A.26.26,0,0,1,7.26,6H8.74A.26.26,0,0,1,9,6.26v7.48ZM18,20H14V13h4Zm-7-9V9H21v2Zm14,2.74a.26.26,0,0,1-.26.26H23.26a.26.26,0,0,1-.26-.26V6.26A.26.26,0,0,1,23.26,6h1.48a.26.26,0,0,1,.26.26v7.48ZM27,11V9a1,1,0,0,1,0,2Z"/></g></svg>